<svg xmlns="http://www.w3.org/2000/svg" width="40" height="40" viewBox="0 0 40 40" fill="none">
  <!-- Background circle -->
  <circle cx="20" cy="20" r="20" fill="#F5EBE0"/>
  
  <!-- Open book -->
  <path d="M8 14C8 12.8954 8.89543 12 10 12H30C31.1046 12 32 12.8954 32 14V28C32 29.1046 31.1046 30 30 30H10C8.89543 30 8 29.1046 8 28V14Z" fill="white"/>
  <path d="M20 12V30" stroke="#BA8F95" stroke-width="1.5"/>
  <path d="M10 12H30C31.1046 12 32 12.8954 32 14V28C32 29.1046 31.1046 30 30 30H10C8.89543 30 8 29.1046 8 28V14C8 12.8954 8.89543 12 10 12Z" stroke="#BA8F95" stroke-width="1.5"/>
  
  <!-- Seedling/plant -->
  <path d="M20 22C20 22 18 18 20 16C22 14 24 16 24 18C24 20 20 22 20 22Z" fill="#8E5F66"/>
  <path d="M20 22V28" stroke="#8E5F66" stroke-width="1.5"/>
  <path d="M17 28H23" stroke="#8E5F66" stroke-width="1.5"/>
</svg> 